inDegrees=yes
name=ik_lifting_orientations
DataType=double
version=3
OpenSimVersion=4.5-2024-01-10-34fd6af
endheader
time	pelvis_tilt	pelvis_list	pelvis_rotation	pelvis_tx	pelvis_ty	pelvis_tz	hip_flexion_r	hip_adduction_r	hip_rotation_r	knee_angle_r	knee_angle_r_beta	ankle_angle_r	subtalar_angle_r	mtp_angle_r	hip_flexion_l	hip_adduction_l	hip_rotation_l	knee_angle_l	knee_angle_l_beta	ankle_angle_l	subtalar_angle_l	mtp_angle_l	lumbar_extension	lumbar_bending	lumbar_rotation	arm_flex_r	arm_add_r	arm_rot_r	elbow_flex_r	pro_sup_r	wrist_flex_r	wrist_dev_r	arm_flex_l	arm_add_l	arm_rot_l	elbow_flex_l	pro_sup_l	wrist_flex_l	wrist_dev_l
1.18	-5.923955216888309	1.5589086389043	-19.07444054837105	0	0.9399999998497812	0	42.98938840318467	-10.07795885600596	0	59.46484757621408	1.037857379401505	-5.016273078738452	0	0	42.98938840318467	-10.07795885600596	0	59.46484757621408	1.037857379401505	-5.016273078738452	0	0	3.355308902463085	-10.50054734378916	-1.063186260582858	1.895539363930778	33.16959898358181	4.326892307195012	54.12126406887874	45.15998709663178	0	0	0	-11.07813280684775	0	76.42050489928546	45.15998709663178	0	0
1.19	-5.642925530873005	1.371687683541027	-19.01944061325057	0	0.9399999998497812	0	42.99009278885197	-10.07786338403878	0	59.46499452859251	1.037859944204353	-5.016247077250819	0	0	42.99009278885197	-10.07786338403878	0	59.46499452859251	1.037859944204353	-5.016247077250819	0	0	3.012784501899586	-10.16968595710806	-1.109686325781605	1.887694527026721	32.99431647182672	4.492525596587497	55.41660230419088	45.15983214348264	0	0	0	-11.07883616367393	0	76.4200074897835	45.15983214348264	0	0
1.2	-5.369094756957795	1.172134264638828	-18.93411773825218	0	0.9399999998497812	0	42.99109039005409	-10.07772807671111	0	59.46520237865579	1.037863571872307	-5.016210230999165	0	0	42.99109039005409	-10.07772807671111	0	59.46520237865579	1.037863571872307	-5.016210230999165	0	0	2.689368525776222	-10.07910783691601	-1.221155269134355	1.628380321751132	33.54242579247896	5.134587479454306	57.07536075147697	45.15961253610715	0	0	0	-11.07983151253465	0	76.41930302341501	45.15961253610715	0	0
1.21	-4.849291446588976	0.4272909682056894	-18.48669698738176	0	0.9399999998497812	0	42.99228378857378	-10.07756640860374	0	59.46545101774526	1.037867911443068	-5.016166230883881	0	0	42.99228378857378	-10.07756640860374	0	59.46545101774526	1.037867911443068	-5.016166230883881	0	0	2.969172913492913	-8.536297757485181	-1.828745260588451	0.285254686462309	32.69141027639102	5.803579173575635	58.20316751566366	45.15935004593474	0	0	0	-11.08102241621135	0	76.41846029234289	45.15935004593474	0	0
1.22	-4.857696907860518	0.4254781722551362	-18.49014023721318	0	0.9399999998497812	0	43.01630023853878	-10.07529769607783	0	59.47171916536131	1.037977311256969	-5.015598160154544	0	0	43.01630023853878	-10.07529769607783	0	59.47171916536131	1.037977311256969	-5.015598160154544	0	0	2.967214318610766	-8.533384410578629	-1.829130159667986	-1.688835948250614	32.62819346822642	7.55942758598634	62.83576082725642	45.15539217959449	0	0	0	-11.10931047485535	0	76.40149759459109	45.15539217959449	0	0
1.23	-4.85051708875832	0.4223939216626378	-18.49873334736703	0	0.9399999998497812	0	43.01705222442935	-10.07519789396811	0	59.47187610730053	1.037980050410543	-5.015571185112146	0	0	43.01705222442935	-10.07519789396811	0	59.47187610730053	1.037980050410543	-5.015571185112146	0	0	2.950787975900544	-8.532164893647996	-1.802948826103768	-1.612016907791162	32.37831193361571	7.735315065679277	64.24420613525416	45.15522929545985	0	0	0	-11.11006539526482	0	76.40096656531502	45.15522929545985	0	0
1.24	-4.863497099649506	0.4209075476654175	-18.48985543549377	0	0.9399999998497812	0	43.02695601137081	-10.07427537276102	0	59.47447147384037	1.038025348101959	-5.015340928026428	0	0	43.02695601137081	-10.07427537276102	0	59.47447147384037	1.038025348101959	-5.015340928026428	0	0	2.998433078122337	-8.043616138262028	-1.757681534295681	-1.733387575724843	32.0959087160013	8.219830081876813	66.86849805142971	45.15361535142451	0	0	0	-11.121797953278	0	76.39397152277128	45.15361535142451	0	0
1.25	-3.758963061636802	0.4471335027716045	-18.82570212867994	0	0.9399999998497812	0	43.02806225977422	-10.07412997682878	0	59.47470261222583	1.038029382227813	-5.015301759569378	0	0	43.02806225977422	-10.07412997682878	0	59.47470261222583	1.038029382227813	-5.015301759569378	0	0	3.050401370764067	-7.883784043417302	-1.609608838191879	-4.662029887757134	31.16879673967524	10.09663424947548	70.15737705751013	45.15337746953254	0	0	0	-11.12291173011347	0	76.39319031992019	45.15337746953254	0	0
1.26	-3.738264589413754	0.4486563578679704	-18.81315140678165	0	0.9399999998497812	0	43.02984739599217	-10.07389825533504	0	59.47507793988193	1.038035932931186	-5.015239557687809	0	0	43.02984739599217	-10.07389825533504	0	59.47507793988193	1.038035932931186	-5.015239557687809	0	0	1.998773410253722	-8.41984807193171	-1.414165869673388	-4.380069020548313	31.13213236528239	10.61277966589301	73.90073855462914	45.15299728567055	0	0	0	-11.12471783295219	0	76.39192969734961	45.15299728567055	0	0
1.27	-3.756012299203167	0.4479763331468074	-18.82104543589962	0	0.9399999998497812	0	43.03086537559207	-10.07376449813496	0	59.47529014459361	1.038039636602093	-5.015203556054438	0	0	43.03086537559207	-10.07376449813496	0	59.47529014459361	1.038039636602093	-5.015203556054438	0	0	2.027617954889311	-7.935800414488521	-1.35735081442198	-4.560035441867011	31.04974150966884	11.3080209853154	75.73605473123094	45.15277834571804	0	0	0	-11.12574154728583	0	76.39121082785748	45.15277834571804	0	0
1.28	-2.629879883211132	0.4736613328494477	-19.15002202475809	0	0.9399999998497812	0	43.03198689288162	-10.07361758384583	0	59.47552427784385	1.038043722998198	-5.015164048867224	0	0	43.03198689288162	-10.07361758384583	0	59.47552427784385	1.038043722998198	-5.015164048867224	0	0	1.540244621829741	-8.054320360657638	-1.120534564991784	-5.947496150605653	30.25994788457905	12.45595475153862	79.36090214069998	45.15253770248722	0	0	0	-11.12687077289779	0	76.39041884163865	45.15253770248722	0	0
1.29	-2.636868730107883	0.4760551951029726	-19.15892710033639	0	0.9399999998497812	0	43.04205657721943	-10.07268294667739	0	59.47815431002694	1.038089625719226	-5.014931287926903	0	0	43.04205657721943	-10.07268294667739	0	59.47815431002694	1.038089625719226	-5.014931287926903	0	0	2.058792191193309	-7.789398435637377	-1.218163941907448	-7.276368071924121	29.38152188095444	13.81966218551515	84.48835822968378	45.15090032437935	0	0	0	-11.13879854048022	0	76.38330662408831	45.15090032437935	0	0
